
        <svg xmlns="http://www.w3.org/2000/svg" xmlns:xlink="http://www.w3.org/1999/xlink" version="1.1" width="3198.9553740739825" height="881.1233577690496" viewBox="0 0 3198.9553740739825 881.1233577690496">
			
			<g transform="scale(9.947768703699118) translate(10, 10)">
				<defs id="SvgjsDefs1031"/><g id="SvgjsG1032" featureKey="JiLV9t-0" transform="matrix(0.7619504893951577,0,0,0.7619504893951577,229.5429356648376,-3.8105147055658914)" fill="#000"><path xmlns="http://www.w3.org/2000/svg" d="M86.229,50.001l0.721-0.723c10.115-10.115,10.116-26.574,0-36.69s-26.575-10.116-36.691,0l-0.722,0.721l-0.721-0.721  C38.7,2.472,22.24,2.472,12.124,12.588C2.008,22.704,2.008,39.163,12.125,49.278l0.721,0.723l-0.721,0.721  C2.008,60.838,2.008,77.296,12.124,87.414c10.117,10.115,26.577,10.115,36.692,0l0.721-0.722l0.722,0.722  c10.116,10.115,26.575,10.115,36.691,0c10.116-10.118,10.115-26.576,0-36.692L86.229,50.001z M53.453,15.783  c8.354-8.354,21.947-8.354,30.3,0c8.354,8.354,8.354,21.948,0.001,30.301L59.431,70.407c-1.862,1.863-2.316,4.073-0.109,6.306  l0.831,0.806c4.66,4.66,12.242,4.66,16.902,0s4.66-12.243,0.001-16.903l-0.722-0.722l1.751-1.75l0.722,0.722  c5.627,5.625,5.627,14.78,0,20.405c-5.625,5.625-14.781,5.625-20.406,0c0,0-0.354-0.298-0.833-0.78  c-0.44-0.447-4.823-4.899,0.112-9.835l24.322-24.323c7.389-7.388,7.389-19.409,0-26.798c-7.388-7.387-19.408-7.387-26.796,0.001  l-0.723,0.721l-1.752-1.751L53.453,15.783z M73.86,74.325c-2.899,2.897-7.615,2.897-10.514,0l-0.721-0.722l10.513-10.513l0.722,0.72  C76.758,66.71,76.758,71.425,73.86,74.325z M15.319,15.783c8.354-8.354,21.948-8.354,30.302,0l24.321,24.321l-1.752,1.754  L43.868,17.535c-7.389-7.388-19.408-7.388-26.796,0c-7.389,7.388-7.389,19.409,0,26.797l0.721,0.722l-1.752,1.752l-0.722-0.721  C6.965,37.731,6.965,24.138,15.319,15.783z M62.626,26.398l0.721-0.722c2.898-2.898,7.614-2.898,10.514,0  c2.897,2.898,2.897,7.613,0,10.514l-0.722,0.721L62.626,26.398z M24.337,58.297l-2.319,2.318c-4.661,4.66-4.66,12.243,0,16.903  c4.659,4.66,12.242,4.66,16.902,0l0.722-0.722c3.561-3.559-0.725-7.104-2.787-9.167l-1.343-1.354l-6.383-6.383l1.752-1.75  l8.49,8.489l0.67,0.672c6.242,6.239,1.837,10.76,1.353,11.244l-0.722,0.722c-5.626,5.628-14.78,5.625-20.407,0  c-5.625-5.625-5.625-14.78,0.001-20.407L44.59,34.54l1.751,1.754L34.23,48.403L24.337,58.297z M25.934,63.091l10.513,10.51  l-0.722,0.723c-2.899,2.897-7.614,2.899-10.512,0c-2.898-2.898-2.898-7.615,0-10.513L25.934,63.091z M49.536,39.488l10.512,10.513  L49.536,60.512L39.023,50.001L49.536,39.488z M38.921,22.483c-4.66-4.662-12.243-4.66-16.902,0c-4.66,4.658-4.661,12.242,0,16.902  l0.721,0.722l-1.752,1.751l-0.722-0.721c-5.626-5.627-5.625-14.781,0-20.408c5.627-5.625,14.781-5.626,20.407,0l24.323,24.323  l-1.752,1.752L38.921,22.483z M36.447,26.399L25.934,36.911l-0.721-0.721c-2.899-2.899-2.899-7.615-0.001-10.514  c2.898-2.898,7.614-2.898,10.513,0.002L36.447,26.399z M83.753,84.218c-8.353,8.354-21.946,8.354-30.3,0l-0.909-0.813  c-0.198-0.199-1.873-1.863-3.107-4.434c-1.151,2.43-2.679,4.096-3.094,4.525l-0.722,0.722c-8.354,8.354-21.948,8.354-30.302,0  c-8.354-8.354-8.354-21.947,0-30.303l24.323-24.321l1.752,1.753L17.072,55.669c-7.389,7.389-7.389,19.409,0,26.797  c7.388,7.389,19.408,7.389,26.796,0l0.761-0.762c1.918-1.991,3.366-5.064,3.473-8.229c0-0.093,0.007-0.186,0.009-0.277  c0.022-2.474-0.788-4.981-2.86-7.055c-1.284-1.284-3.86-3.86-3.86-3.86l-0.371-0.395l-6.942-6.941l1.752-1.753l9.693,9.693  l0.813,0.828c1.438,1.439,2.459,2.871,3.161,4.269c0.705-1.348,1.705-2.73,3.102-4.128l0.134-0.148l24.324-24.322  c4.659-4.66,4.659-12.244-0.001-16.904c-4.659-4.66-12.242-4.66-16.902,0l-0.722,0.723l-1.751-1.752l0.721-0.723  c5.625-5.625,14.781-5.625,20.406,0c5.627,5.627,5.627,14.781,0,20.406L54.482,65.46l-0.767,0.77  c-4.868,4.868-2.956,11.839,0.604,15.397l0.886,0.839c7.388,7.389,19.408,7.389,26.796,0c7.389-7.388,7.389-19.408,0-26.797  l-0.722-0.722l1.752-1.753l0.722,0.723C92.107,62.271,92.107,75.863,83.753,84.218z"/></g><g id="SvgjsG1033" featureKey="Yxc9Rz-0" transform="matrix(3.20734790423141,0,0,3.20734790423141,-0.5773243662578863,-5.9348037248008545)" fill="#000"><path d="M6.34 17.32 l2.62 -10.98 q0.48 -0.12 1.24 -0.12 q1.04 0 1.64 0.22 l0.12 0.16 l-3.74 13.4 q-1.14 0.12 -2.29 0.12 t-1.66 -0.29 t-0.77 -1.15 l-3.32 -12.06 q1.08 -0.46 1.78 -0.46 q0.84 0 1.24 0.38 t0.62 1.2 l1.54 5.7 q0.36 1.34 0.76 3.64 q0.04 0.24 0.22 0.24 z M19.580000000000002 10.9 q1.44 1.44 1.44 4.12 q0 1.2 -0.31 2.18 t-0.9 1.67 t-1.45 1.06 t-1.98 0.37 t-1.97 -0.38 t-1.44 -1.07 t-0.89 -1.67 t-0.3 -2.16 q0 -1.2 0.3 -2.17 t0.88 -1.67 t1.44 -1.08 t1.98 -0.38 q1.98 0 3.2 1.18 z M16.400000000000002 12.059999999999999 q-0.44 0 -0.71 0.21 t-0.43 0.57 t-0.22 0.83 t-0.06 1.01 q0 0.84 0.05 1.45 t0.2 1.02 t0.42 0.61 t0.71 0.2 q0.88 0 1.16 -0.77 t0.28 -2.19 q0 -1.44 -0.28 -2.19 t-1.12 -0.75 z M22.76 16.62 l0 -4.1 q0 -1.3 -0.48 -2 q0.74 -0.66 1.8 -0.66 t1.44 0.48 t0.38 1.46 l0 4.24 q0 0.7 0.16 1.02 t0.84 0.32 q0.66 0 1.34 -0.68 l0 -6.68 q0.66 -0.12 1.54 -0.12 t1.58 0.12 l0 7.12 q0 1.08 0.56 1.46 q-0.1 0.4 -0.38 0.87 t-0.58 0.69 q-1.64 -0.06 -2.36 -1.4 q-1.58 1.42 -2.98 1.42 t-2.13 -0.97 t-0.73 -2.59 z M38.78 14.440000000000001 l0 -0.26 q0 -1.12 -0.24 -1.63 t-0.9 -0.51 q-0.7 0 -0.98 0.69 t-0.28 2.29 q0 0.8 0.11 1.34 t0.32 0.87 t0.53 0.48 t0.76 0.15 q0.46 0 1.02 -0.2 t1.2 -0.64 q0.18 0.1 0.37 0.29 t0.35 0.43 t0.28 0.51 t0.18 0.51 q-0.66 0.7 -1.72 1.12 t-2.16 0.42 q-2.14 0 -3.28 -1.4 t-1.14 -3.98 q0 -1.32 0.37 -2.3 t0.98 -1.62 t1.4 -0.96 t1.65 -0.32 q0.88 0 1.61 0.24 t1.26 0.68 t0.82 1.05 t0.29 1.35 q0 0.84 -0.49 1.18 t-1.21 0.34 q-0.6 0 -1.1 -0.12 z M51.82 13.4 l0 4.1 q0 1.34 0.5 1.98 q-0.76 0.68 -1.84 0.68 q-1.04 0 -1.42 -0.48 t-0.38 -1.46 l0 -4.26 q0 -0.68 -0.18 -1 t-0.7 -0.32 q-0.3 0 -0.68 0.16 t-0.78 0.52 l0 6.68 q-0.66 0.12 -1.52 0.12 t-1.52 -0.12 l0 -14.58 l0.14 -0.14 l1.2 0 q0.96 0 1.33 0.42 t0.37 1.46 l0 3.78 q1.34 -1.1 2.68 -1.1 t2.07 0.97 t0.73 2.59 z M54.52 20 l0 -13.66 q0.62 -0.12 1.6 -0.12 t1.62 0.12 l0 13.66 q-0.64 0.12 -1.62 0.12 t-1.6 -0.12 z M66.34 10 q0.12 0.56 0.12 1.12 t-0.12 1.1 l-2.38 -0.04 l0 4.6 q0 0.94 0.88 0.94 l1.12 0 q0.26 0.72 0.26 1.32 t-0.08 0.86 q-1.48 0.2 -2.72 0.2 q-2.52 0 -2.52 -2.78 l0 -5.12 l-1.56 0.02 q-0.14 -0.5 -0.14 -1.09 t0.14 -1.13 l1.56 0.04 l0 -1.16 q0 -1.02 0.39 -1.45 t1.31 -0.43 l1.22 0 l0.14 0.14 l0 2.9 z"/></g>
			</g>
		</svg>
	